<svg width="1920" height="1080" viewBox="0 0 1920 1080" fill="none" xmlns="http://www.w3.org/2000/svg">
<g clip-path="url(#clip0_10_289)">
<rect width="1920" height="1080" fill="#241C35"/>
<circle cx="1171" cy="200" r="150" fill="#3E315B"/>
<path d="M1872.45 140.838C1871.02 91.5915 1923.44 59.2701 1966.8 82.6596L2076.56 141.864C2119.92 165.254 2121.7 226.812 2079.77 252.669L1973.62 318.12C1931.68 343.977 1877.48 314.74 1876.05 265.494L1872.45 140.838Z" fill="#3E315B"/>
<rect x="1565" y="868.116" width="400" height="400" rx="64" transform="rotate(-27.5673 1565 868.116)" fill="#3E315B"/>
<rect x="-146" y="763" width="300" height="400" rx="64" transform="rotate(-32.6546 -146 763)" fill="#3E315B"/>
<circle cx="800" cy="850" r="100" fill="#3E315B"/>
<path d="M279.749 -9.18834C319.392 -38.4403 375.836 -13.8078 381.347 35.1502L414.673 331.193C420.185 380.151 370.631 416.716 325.476 397.01L52.4324 277.85C7.27782 258.144 0.388619 196.947 40.0318 167.695L279.749 -9.18834Z" fill="#3E315B"/>
</g>
<defs>
<clipPath id="clip0_10_289">
<rect width="1920" height="1080" fill="white"/>
</clipPath>
</defs>
</svg>
