<?xml version="1.0" standalone="no"?>
<!DOCTYPE svg PUBLIC "-//W3C//DTD SVG 20010904//EN"
 "http://www.w3.org/TR/2001/REC-SVG-20010904/DTD/svg10.dtd">
<svg version="1.0" xmlns="http://www.w3.org/2000/svg"
 width="1024.000000pt" height="1024.000000pt" viewBox="0 0 1024.000000 1024.000000"
 preserveAspectRatio="xMidYMid meet">

<g transform="translate(0.000000,1024.000000) scale(0.100000,-0.100000)"
fill="#000000" stroke="none">
<path d="M3075 8340 c-147 -27 -239 -53 -370 -107 -539 -219 -937 -700 -1056
-1278 -30 -147 -37 -452 -14 -600 47 -300 145 -540 326 -792 155 -216 160
-237 163 -677 2 -301 5 -357 25 -481 105 -645 384 -1198 834 -1654 462 -468
1033 -760 1690 -863 124 -20 181 -22 447 -23 272 0 321 3 450 23 646 104 1201
383 1659 835 467 461 758 1030 862 1685 19 118 23 183 25 478 2 375 7 410 65
526 17 35 55 95 84 133 160 213 273 464 326 720 30 147 37 452 14 600 -53 343
-179 621 -402 886 -239 285 -608 501 -988 580 -147 30 -452 37 -600 14 -300
-47 -540 -145 -792 -326 -115 -83 -191 -123 -270 -145 -85 -23 -781 -23 -866
0 -78 21 -168 68 -252 131 -213 159 -463 273 -720 326 -152 31 -489 36 -640 9z
m1005 -2507 c103 -28 217 -114 279 -212 93 -145 98 -354 13 -501 -34 -60 -113
-142 -171 -179 -145 -93 -354 -98 -501 -13 -155 89 -252 253 -252 427 -1 135
40 241 131 339 134 143 309 192 501 139z m2360 0 c103 -28 217 -114 279 -212
93 -145 98 -354 13 -501 -34 -60 -113 -142 -171 -179 -145 -93 -354 -98 -501
-13 -155 89 -252 253 -252 427 -1 135 40 241 131 339 134 143 309 192 501 139z
m-978 -1114 c86 -18 158 -59 229 -129 113 -112 164 -258 140 -402 -16 -95 -21
-105 -189 -396 -167 -291 -206 -339 -324 -396 -134 -66 -278 -66 -414 -2 -118
56 -158 105 -331 407 -83 145 -158 285 -166 310 -38 113 -27 250 27 357 57
113 181 212 307 246 68 19 638 22 721 5z"/>
</g>
</svg>
